<svg width="225" height="93" viewBox="0 0 225 93" fill="none" xmlns="http://www.w3.org/2000/svg">
<path d="M94.8545 28.8296L77.9863 47.91L82.6873 46.5273C86.3343 45.2509 89.6752 43.2283 92.4969 40.5887L93.6094 39.5479C95.7218 37.5718 97.5813 35.3417 99.1455 32.9085L101.768 28.8296H94.8545Z" fill="#AEB6C1"/>
<path d="M105.917 28.8296H104.534L103.416 30.9528C102.32 33.037 101.383 35.2017 100.615 37.4283L100.048 39.0742C99.3535 41.0876 98.8755 43.1692 98.6217 45.2838L98.5668 45.7415C98.3058 47.916 98.3171 50.1147 98.6004 52.2865C98.8681 54.3391 99.3769 56.3531 100.116 58.2866L102.598 64.7781H115.042L105.917 28.8296Z" fill="#AEB6C1"/>
<path d="M155.137 42.9325H142.417L141.996 40.8256C141.908 40.3886 141.763 39.9652 141.564 39.5667L141.547 39.5335C141.21 38.8591 140.72 38.2725 140.117 37.8202C139.277 37.1897 138.254 36.8489 137.203 36.8489H136.902C136.342 36.8489 135.784 36.9307 135.247 37.0918L134.971 37.1747C133.865 37.5063 132.848 38.0814 131.994 38.8578L131.515 39.2933C130.677 40.0553 129.967 40.947 129.411 41.9343L129.138 42.4202C128.229 44.0361 127.65 45.8163 127.433 47.6576L127.34 48.4452C127.252 49.1916 127.258 49.946 127.358 50.6908L127.529 51.9737C127.679 53.1044 128.198 54.1541 129.005 54.9607C129.979 55.935 131.3 56.4823 132.678 56.4823H132.797C133.126 56.4823 133.454 56.4527 133.778 56.3939L134.02 56.3499C135.532 56.075 136.936 55.3812 138.073 54.3475L138.266 54.1723C139.001 53.5046 139.621 52.7214 140.103 51.8536L140.758 50.6752H153.478C153.478 51.5845 153.266 52.4813 152.86 53.2945L152.649 53.717L152.256 54.3339C151.232 55.9438 150.003 57.4142 148.601 58.7084C147.614 59.619 146.547 60.4379 145.412 61.1548L144.395 61.797C142.714 62.8588 140.91 63.7133 139.024 64.3421C136.509 65.1804 133.876 65.6077 131.225 65.6077H130.034C128.339 65.6077 126.65 65.4223 124.996 65.0547L122.629 64.3149C121.267 63.8893 119.984 63.2413 118.833 62.3974L118.736 62.3258C117.214 61.2101 115.967 59.7626 115.088 58.093C114.149 56.3086 113.658 54.3225 113.658 52.3061V52.0202C113.658 51.1257 113.747 50.2335 113.922 49.3565L114.197 47.9794C114.574 46.0947 115.146 44.2542 115.903 42.4876L116.423 41.2733L117.249 39.7878C118.531 37.4797 120.229 35.4288 122.258 33.7385C123.526 32.6817 124.912 31.7751 126.389 31.0368L128.506 29.9782C129.299 29.5816 130.119 29.2419 130.96 28.9615C132.871 28.3247 134.871 28 136.885 28H138.168C139.524 28 140.878 28.1036 142.218 28.3098L143.8 28.5531L145.263 28.919C147.213 29.4063 149.029 30.3219 150.58 31.5992L150.915 31.8749C152.238 32.9651 153.304 34.3354 154.034 35.8871C154.761 37.431 155.137 39.1163 155.137 40.8226V42.9325Z" fill="#AEB6C1"/>
<path d="M77.9867 65.0547L63.8838 64.7781L69.9512 56.8438C70.6974 55.8681 71.5436 54.9732 72.4762 54.1739L73.3335 53.4391C74.3987 52.526 75.6223 51.8159 76.9436 51.3441C78.1828 50.9015 79.4889 50.6752 80.8048 50.6752H86.0964C86.7702 50.6752 87.4408 50.7692 88.0887 50.9543C88.7251 51.1361 89.3336 51.4042 89.8973 51.7511L90.9829 52.4191C92.0841 53.0968 93.0858 53.924 93.9595 54.8771C95.1 56.1213 96.0056 57.5619 96.6325 59.129L96.7905 59.5241H81.8581L77.9867 65.0547Z" fill="#AEB6C1"/>
<path d="M26 65.8842L35.4019 29.3826L57.0874 29.6158C59.7482 29.6444 62.3762 30.2058 64.8164 31.2667L65.7961 31.6927C66.8991 32.1723 67.8585 32.9304 68.5802 33.8926C69.4809 35.0936 69.9678 36.573 69.9678 38.0742C69.9678 39.5999 69.473 41.1035 68.5576 42.3241L68.3466 42.6054C67.7728 43.3705 67.0682 44.028 66.2653 44.5475L62.7781 46.8039L64.6271 47.6443C65.4139 48.0019 66.1183 48.518 66.6965 49.1604C67.7344 50.3137 68.3087 51.8103 68.3087 53.3618V53.6146C68.3087 54.9453 67.9261 56.2478 67.2066 57.3671L66.8035 57.9942C66.1537 59.0049 65.3177 59.8829 64.3399 60.5813L62.6294 61.8031C60.8957 63.0414 58.9542 64.0089 56.924 64.6548C54.9546 65.2815 52.8786 65.6181 50.812 65.6386L26 65.8842Z" fill="#AEB6C1"/>
<path d="M171.721 29.8877L170.348 30.4887L169.495 30.9149C167.485 31.9199 165.552 33.0714 163.711 34.3601L162.141 35.8094C160.795 37.0516 159.593 38.4401 158.555 39.9492L158.081 40.6392C157.412 41.6122 156.848 42.6535 156.398 43.7454C155.567 45.7648 155.139 47.9276 155.139 50.1115V50.4237C155.139 51.5102 155.251 52.5938 155.475 53.657L155.597 54.2331C156.023 56.2574 156.918 58.1534 158.21 59.7687C159.106 60.8886 160.178 61.8553 161.385 62.6309L161.704 62.8361C162.853 63.5745 164.094 64.1583 165.395 64.5723L166.235 64.8395C168.411 65.5319 170.68 65.8842 172.964 65.8842H174.192C175.863 65.8842 177.528 65.6793 179.149 65.2741C180.468 64.9443 181.751 64.4836 182.978 63.899L184.1 63.3648C185.986 62.4667 187.76 61.3488 189.383 60.0344L189.742 59.7439C191.732 58.1332 193.447 56.2106 194.822 54.051L195.315 53.2754C196.179 51.9174 196.848 50.4447 197.302 48.9004C197.765 47.3265 198 45.6943 198 44.0537V43.3375C198 41.4276 197.619 39.537 196.877 37.7767C196.158 36.0683 195.114 34.5156 193.803 33.2049L193.628 33.0292C192.134 31.5355 190.352 30.3607 188.391 29.5762L187.216 29.1061C185.023 28.375 182.713 28.0564 180.404 28.1664L178.09 28.2765C175.893 28.4596 173.741 29.004 171.721 29.8877Z" fill="#AEB6C1"/>
<path d="M54.0931 38.508H46.7389L45.6328 44.0386H51.8682C52.6803 44.0386 53.4839 43.8736 54.2303 43.5537L54.5631 43.4111C54.8759 43.2771 55.1675 43.0984 55.4289 42.8805L55.9504 42.446C56.4215 42.0534 56.6939 41.4718 56.6939 40.8585C56.6939 40.2453 56.4215 39.6637 55.9504 39.2711L55.7581 39.1108C55.2907 38.7213 54.7015 38.508 54.0931 38.508Z" fill="#2E323D"/>
<path d="M42.3154 57.0354L43.9746 51.2283H51.9286C52.5171 51.2283 53.0975 51.3653 53.6239 51.6285L53.7406 51.6869C53.8663 51.7497 53.9861 51.8238 54.0986 51.9081L54.1375 51.9373C54.7029 52.3614 55.0357 53.0269 55.0357 53.7337C55.0357 54.259 54.8515 54.7676 54.5152 55.1712L54.1594 55.5982C53.8254 55.9989 53.4122 56.3262 52.9457 56.5595L52.8736 56.5955C52.2951 56.8848 51.6572 57.0354 51.0104 57.0354H42.3154Z" fill="#2E323D"/>
<path d="M171.89 41.2409L171.469 41.8422C171.09 42.384 170.751 42.9529 170.455 43.5444L170.355 43.7443C169.982 44.4913 169.691 45.2769 169.489 46.0872C169.323 46.748 169.218 47.4223 169.172 48.1019L169.013 50.4851C168.98 50.9789 169.005 51.4749 169.086 51.9631L169.172 52.4794C169.393 53.8042 170.126 54.9893 171.212 55.7793C172.087 56.4159 173.142 56.7588 174.224 56.7588H174.924C176.27 56.7588 177.59 56.3853 178.737 55.6798L179.238 55.3714C180.125 54.8254 180.915 54.1349 181.575 53.3286L181.767 53.0938C182.626 52.0433 183.287 50.8448 183.716 49.5572L183.801 49.3006C184.231 48.0132 184.449 46.6651 184.449 45.3081V43.4518C184.449 42.5624 184.263 41.683 183.902 40.8702L183.834 40.7173C183.51 39.9903 183.036 39.3407 182.441 38.8121C181.419 37.9037 180.099 37.4019 178.732 37.4019H178.557C178.063 37.4019 177.57 37.4625 177.091 37.5824L176.929 37.623C176.051 37.8424 175.22 38.2211 174.479 38.7401L174.185 38.9455C173.292 39.5708 172.515 40.3477 171.89 41.2409Z" fill="#2E323D"/>
</svg>
