<svg width="71" height="80" viewBox="0 0 71 80" fill="none" xmlns="http://www.w3.org/2000/svg">
<path d="M27.9783 76.5552L23.4424 71.3215H28.7249L30.3216 73.4505C30.3854 73.5355 30.4854 73.5855 30.5916 73.5855C30.7195 73.5855 30.8363 73.5133 30.8935 73.3989L31.9322 71.3215H36.2714C36.2714 71.9383 36.1003 72.543 35.777 73.0682L31.7435 79.6227H27.027L27.9736 78.5409C28.2147 78.2653 28.3476 77.9115 28.3476 77.5453C28.3476 77.1816 28.2165 76.8301 27.9783 76.5552Z" fill="#AEB6C1"/>
<path fill-rule="evenodd" clip-rule="evenodd" d="M27.9708 0.384125C-0.493393 5.00333 -9.89595 38.0008 12.3119 55.3396C14.7007 57.2047 18.4283 59.0981 22.311 60.4188C26.3453 61.7907 26.2578 61.7866 46.2711 61.5168C54.347 61.4081 56.6151 61.496 59.1001 62.0137C64.3759 63.1132 65.086 62.8676 63.8178 60.3818L63.036 58.8491L63.9382 59.0755C65.6901 59.5151 66.6968 57.2964 65.6263 55.3547C65.3765 54.9015 65.0792 53.7665 64.966 52.8326C64.6842 50.5094 63.6993 50.3966 61.9719 52.4893C60.5641 54.1952 60.5347 53.9205 62.4927 57.3481C63.3254 58.8057 62.8032 58.7612 61.2467 57.2417C59.4141 55.4516 58.7368 55.4969 56.5422 57.5556C53.8904 60.0429 52.1094 59.4079 48.8229 54.8023C46.575 49.5192 37.76 53.5285 26.6762 57.1798C25.5365 57.5552 24.329 57.7379 23.1291 57.7379C22.5881 57.7379 22.0422 57.6995 21.5065 57.6229L20.3258 57.4543C19.8911 57.3922 19.4693 57.2604 19.0765 57.064C18.2396 56.6455 17.5716 55.9524 17.1844 55.1005L17.1399 55.0025C17.0612 54.8295 17.2756 54.65 17.4347 54.7538C18.4671 55.427 20.6897 56.6986 22.8768 56.7945C26.281 56.9439 30.0899 55.3485 30.8006 55.0376C33.4419 53.3986 37.7811 51.5331 39.6679 51.5331C44.2486 50.5091 44.7014 49.9763 43.6223 46.8788C43.3132 45.991 42.8322 43.8685 42.5537 42.1623C41.3636 34.8716 38.119 31.8934 31.3668 31.8934C27.2324 31.8934 25.6661 32.5046 23.2396 35.0655C21.6137 36.7812 21.3745 36.7405 20.3934 34.5803C18.3634 30.1098 20.8187 24.4469 25.7069 22.3259C31.9324 19.6247 39.0649 22.4765 41.0316 28.4541C41.3802 29.5143 41.8322 30.4901 42.036 30.6225C43.3295 31.4644 48.7516 31.2463 53.6595 30.155C55.5884 29.726 56.1249 29.7743 60.0544 30.7282C65.0924 31.9515 65.3199 31.8545 65.0543 28.5929C63.6363 11.1586 45.6915 -2.49147 27.9708 0.384125ZM46.4801 31.9847C41.4791 32.1605 41.2659 32.4854 42.6861 37.7653C43.1012 39.3074 43.7747 42.0645 44.1834 43.8919C45.0003 47.5467 46.162 49.9665 48.2034 52.2666C48.9403 53.0968 50.213 54.6676 51.0318 55.7569C53.3308 58.8159 54.0255 58.6581 58.6896 54.0163C62.4576 50.2668 63.8608 48.2489 64.6291 45.4748C64.8589 44.6447 65.7041 42.2377 66.5074 40.1262C68.7098 34.3343 68.4865 33.2118 65.1305 33.2118C64.0687 33.2118 61.9376 32.8763 60.3951 32.4662C57.5712 31.7149 55.8385 31.6549 46.4801 31.9847Z" fill="#AEB6C1"/>
<path d="M44.7604 71.3215H39.6665L38.1572 79.6227H43.0624V76.1805C43.0624 75.9977 43.2107 75.8494 43.3935 75.8494C43.5342 75.8494 43.6596 75.9383 43.706 76.0711L44.9491 79.6227H48.7223L50.3291 76.0521C50.3846 75.9288 50.5073 75.8494 50.6425 75.8494C50.8324 75.8494 50.9863 76.0033 50.9863 76.1932V79.6227H55.5142L54.0049 71.3215H48.7223L47.0244 75.8494L44.7604 71.3215Z" fill="#AEB6C1"/>
<path d="M60.0433 73.5855L58.7227 71.6989L59.8194 71.4247C61.0958 71.1056 62.4065 70.9442 63.7222 70.9442H64.1474C65.1807 70.9442 66.21 71.0709 67.2125 71.3215L68.8368 71.7645C69.134 71.8456 69.4102 71.9896 69.6468 72.1867L70.0054 72.4855C70.2679 72.7043 70.4197 73.0284 70.4197 73.3702C70.4197 73.6317 70.3307 73.8854 70.1674 74.0896L69.6651 74.7175L69.1599 75.3911C69.1269 75.4351 69.1376 75.4978 69.1834 75.5283L69.4509 75.7067C69.5933 75.8016 69.726 75.9104 69.8471 76.0314L70.0909 76.2753C70.4223 76.6066 70.6084 77.056 70.6084 77.5245V77.5836C70.6084 77.9275 70.4968 78.2621 70.2905 78.5372C70.1278 78.7541 69.9123 78.9258 69.6645 79.036L68.8518 79.3972C68.5146 79.5471 68.1619 79.6592 67.8 79.7316L67.3479 79.822C66.7559 79.9404 66.1538 80 65.5501 80H63.4857C62.4524 80 61.423 79.8733 60.4206 79.6227L58.7227 79.0567L60.4206 77.1701C61.6717 77.5454 62.9708 77.7361 64.2769 77.7361H64.5712C64.7796 77.7361 64.9485 77.5671 64.9485 77.3587V76.9261C64.9485 76.8407 64.9146 76.7588 64.8542 76.6984C64.7938 76.638 64.7119 76.6041 64.6264 76.6041H61.1753V74.7175H64.1939C64.4023 74.7175 64.5712 74.5485 64.5712 74.3401V73.687C64.5712 73.5092 64.4707 73.3466 64.3116 73.267C64.2346 73.2285 64.1485 73.2119 64.0627 73.2191L61.9299 73.3968L60.0433 73.5855Z" fill="#AEB6C1"/>
<path d="M12.4996 71.5102H8.16035H7.97168V79.8113H12.4996V76.9814H13.0656L14.9522 79.8113H20.2347L16.6532 76.0508C16.5301 75.9215 16.4615 75.7499 16.4615 75.5714C16.4615 75.387 16.5347 75.2102 16.6651 75.0798L20.2347 71.5102H15.7068L13.0656 73.9628H12.4996V71.5102Z" fill="#AEB6C1"/>
</svg>
