<svg width="225" height="93" viewBox="0 0 225 93" fill="none" xmlns="http://www.w3.org/2000/svg">
<rect y="13" width="225" height="66.6667" fill="#AEB6C1"/>
<path d="M68.334 36.3333V51.3333H72.2237V40.3809L77.5007 51.3333H81.6673L86.6673 40.3809V51.3333H90.0007V36.3333H83.7507L79.571 46.8571L74.584 36.3333H68.334Z" fill="#2E323D"/>
<path d="M187.5 51.3333V36.3333H190.958V41.1905H198.737V36.3333H202.627V51.3333H199.169V44.4286H190.958V51.3333H187.5Z" fill="#2E323D"/>
<path d="M184.167 51.3333H170V36.3333H184.167V39.6667H174.167V42.1667H184.167V45.5H174.167V48H184.167V51.3333Z" fill="#2E323D"/>
<path d="M152.5 51.3333V36.3333H163.128C163.808 36.3333 164.475 36.5244 165.053 36.8849C166.116 37.5489 166.762 38.7142 166.762 39.968V42.4024C166.762 43.583 166.282 44.7129 165.432 45.5323C164.622 46.3135 163.54 46.75 162.415 46.75H156.39V51.3333H152.5Z" fill="#2E323D"/>
<path d="M125 39.6667H118.334V47.0412C118.334 47.9358 118.054 48.808 117.534 49.5359C116.728 50.6639 115.428 51.3333 114.042 51.3333H111.667V47.1667L113.011 47.2267C113.481 47.2478 113.914 46.9685 114.088 46.5307C114.14 46.4003 114.167 46.2612 114.167 46.1209V36.3333H129.356V51.3333H125V39.6667Z" fill="#2E323D"/>
<path d="M105.679 36.3333H97.6128C96.2782 36.3333 95.02 36.9561 94.2106 38.0173C93.642 38.7628 93.334 39.6745 93.334 40.6122V46.6655C93.334 47.5824 93.604 48.4791 94.1105 49.2435C94.9751 50.5486 96.4363 51.3333 98.0018 51.3333H105.196C106.621 51.3333 107.937 50.5697 108.644 49.3323C108.987 48.7323 109.167 48.0531 109.167 47.362V39.8216C109.167 38.9202 108.818 38.0537 108.194 37.4039C107.536 36.7199 106.628 36.3333 105.679 36.3333Z" fill="#2E323D"/>
<path d="M104.04 39.6667H98.8477C98.509 39.6667 98.175 39.7455 97.872 39.897C97.1329 40.2666 96.666 41.022 96.666 41.8484V46.2072C96.666 46.8066 96.9656 47.3664 97.4644 47.6989C97.7589 47.8952 98.1049 48 98.4588 48H104.04C104.394 48 104.74 47.8952 105.034 47.6989C105.533 47.3664 105.833 46.8066 105.833 46.2072V41.4595C105.833 40.8601 105.533 40.3003 105.034 39.9678C104.74 39.7714 104.394 39.6667 104.04 39.6667Z" fill="#AEB6C1"/>
<path d="M161.679 39.25H156.25V43.8334H161.398C162.284 43.8334 163.09 43.3195 163.463 42.5162C163.603 42.2156 163.675 41.8881 163.675 41.5566V41.246C163.675 40.9381 163.604 40.6343 163.467 40.3584C163.13 39.6794 162.437 39.25 161.679 39.25Z" fill="#AEB6C1"/>
<path d="M21.666 35.2479V46.5846H48.3327V34.8603C48.3327 33.4521 47.6526 32.1306 46.5068 31.3122C45.7673 30.7839 44.8812 30.5 43.9724 30.5H26.4139C25.5241 30.5 24.6521 30.75 23.8975 31.2217C22.5093 32.0893 21.666 33.6109 21.666 35.2479Z" fill="#2E323D"/>
<path d="M48.3327 49.9709H21.666V52.0873C21.666 53.686 22.4187 55.1915 23.6978 56.1508C24.577 56.8102 25.6464 57.1666 26.7454 57.1666H43.6301C44.7527 57.1666 45.8382 56.7651 46.6905 56.0345C47.7328 55.1411 48.3327 53.8369 48.3327 52.4641V49.9709Z" fill="#2E323D"/>
<rect x="21.666" y="59.6666" width="180.833" height="2.5" fill="#2E323D"/>
<path d="M131.666 51.3333V36.3333H135.833V47.1667H136.666L143.749 36.3333H149.999V51.3333H146.249V40.5H144.999L137.499 51.3333H131.666Z" fill="#2E323D"/>
</svg>
