<svg width="221" height="39" viewBox="0 0 221 39" fill="none" xmlns="http://www.w3.org/2000/svg">
<path fill-rule="evenodd" clip-rule="evenodd" d="M197.934 16.19C199.738 14.4202 201.606 12.8471 203.475 11.6673H181.891V38.6723H188.72C186.078 33.7563 190.137 23.8589 197.934 16.19ZM201.8 38.6068H208.372V33.0353C208.211 33.1992 208.066 33.363 207.92 33.5268V33.5269V33.527C207.776 33.6908 207.631 33.8546 207.47 34.0185C205.537 35.8538 203.604 37.4269 201.8 38.6068ZM192.972 34.6084C191.942 29.8891 196.774 23.0068 199.802 20.0571C201.993 17.8941 205.537 14.6168 208.308 12.716V30.6101C208.049 30.9378 207.792 31.2 207.534 31.4622C201.156 37.8202 193.875 38.6723 192.972 34.6084Z" fill="#AEB6C1"/>
<path d="M194.197 6.48907C204.957 7.73445 214.687 5.50588 219.905 0.655457C214.687 5.50588 211.723 15.2067 211.98 26.2185C211.723 15.2723 204.957 7.73445 194.197 6.48907Z" fill="#AEB6C1"/>
<path fill-rule="evenodd" clip-rule="evenodd" d="M77.5758 10.8807C81.8928 10.8807 85.8227 12.585 85.8227 18.5496V32.9698H83.5679V36.3126C82.0216 37.6891 79.8306 38.148 77.5758 38.148C73.2589 38.148 69.3283 36.4437 69.3283 30.479V18.5496C69.3283 12.5194 73.2589 10.8807 77.5758 10.8807ZM77.5758 34.674C78.929 34.674 79.3154 33.6908 79.3154 32.642V16.3211C79.3154 15.2723 78.929 14.2891 77.5758 14.2891C76.2227 14.2891 75.8363 15.2723 75.8363 16.3211V32.642C75.8363 33.6908 76.2227 34.674 77.5758 34.674ZM163.785 14.5513V11.4051H176.929V14.5513H173.579V37.558H167.071V14.5513H163.785ZM149.223 37.558H162.625V34.4118H155.667V24.7109H162.432V21.4992H155.667V14.5513H162.625V11.4051H149.223V37.558ZM110.5 27.1362H110.564L115.01 11.4051H121.389V37.558H115.526V21.6958L110.951 37.558H104.637V11.4051H110.5V27.1362ZM8.3762 11.4051H0.386719V37.558H6.89428V27.7261H9.27823C13.1442 27.7261 16.8168 26.0219 16.8168 22.0891V17.042C16.8168 12.5193 13.5307 11.4051 8.3762 11.4051ZM7.92518 24.7765H6.89428V14.3547H7.92518C10.1803 14.3547 10.3736 16.3866 10.3736 19.4673C10.3736 22.5479 10.1803 24.7765 7.92518 24.7765ZM33.4401 18.5496C33.4401 12.5194 37.306 10.8807 41.6229 10.8807C46.3264 10.8807 49.8701 12.1917 49.8701 17.8286V20.7126H43.3625V16.3211C43.3625 15.2723 43.0404 14.2891 41.6229 14.2891C40.2698 14.2891 39.9477 15.2723 39.9477 16.3211V32.7076C39.9477 33.7563 40.2698 34.7396 41.6229 34.7396C43.0404 34.7396 43.3625 33.7563 43.3625 32.7076V27.4639H49.8701V30.9379C49.8701 35.7883 47.0996 38.148 41.6229 38.148C37.306 38.148 33.4401 36.4437 33.4401 30.479V18.5496ZM51.4164 37.558H57.8596V14.5513H61.3388V37.558H67.8464V11.4051H51.4164V37.558ZM132.536 11.4051L135.306 30.2169L138.077 11.4051H147.419V37.558H141.556V14.4202H141.492L137.755 37.558H132.858L129.121 14.4202H129.057V37.558H123.193V11.4051H132.536ZM88.0137 31.7244C88.0137 33.232 87.691 34.4118 86.2742 34.4118H85.0498V37.558H88.7221C91.9436 37.558 93.5543 35.2639 93.5543 31.2001V14.5513H96.4537V37.558H102.962V11.4051H88.0781V31.7244H88.0137ZM25.1928 23.269L28.0278 11.5362H34.0843L26.1592 38.0824H20.5537L22.3578 31.6589L16.4301 11.5362H21.8424L25.1928 23.269Z" fill="#AEB6C1"/>
</svg>
