<svg width="104" height="80" viewBox="0 0 104 80" fill="none" xmlns="http://www.w3.org/2000/svg">
<path fill-rule="evenodd" clip-rule="evenodd" d="M0.0721221 28.9755V57.951H52H103.928V28.9755V0H52H0.0721221V28.9755ZM90.0328 15.2502C90.2923 15.6994 90.5236 16.1169 90.5469 16.1779C90.5727 16.2456 89.6803 17.8699 88.2561 20.3475L85.9231 24.4062L84.8825 24.4244L83.8419 24.4426L83.3226 23.5357L82.8033 22.6286L84.098 20.3624L85.3927 18.0961L68.6963 18.0778C59.5133 18.0677 44.4879 18.0677 35.3066 18.0778L18.6131 18.0961L21.2245 22.6473L23.8359 27.1985H29.0723H34.3086L34.8836 26.2013C35.1999 25.6528 36.0242 24.2173 36.7155 23.0113L37.9723 20.8186L39.018 20.8193L40.0638 20.8199L40.5583 21.6914C40.8302 22.1707 41.038 22.6185 41.0201 22.6866C41.0023 22.7548 40.0526 24.4424 38.9098 26.437C37.7671 28.4316 36.4028 30.8141 35.8781 31.7316C35.3535 32.6491 34.4383 34.2484 33.8444 35.2856L32.7644 37.1714L29.0813 37.1901L25.3983 37.2089L24.8878 36.3011C24.607 35.8017 24.3773 35.3728 24.3773 35.348C24.3773 35.3232 24.6069 34.8992 24.8875 34.4057L25.3978 33.5086L28.0429 33.507L30.6879 33.5053L31.4452 32.1899C31.8617 31.4663 32.2106 30.8551 32.2205 30.8316C32.2305 30.8081 29.8776 30.7888 26.9921 30.7888H21.7456L19.7451 27.3073C18.6449 25.3926 17.1543 22.7978 16.4328 21.5413C15.7112 20.2847 14.7365 18.5878 14.2667 17.7704C13.7694 16.9051 13.4299 16.2389 13.454 16.1757C13.4768 16.1159 13.7077 15.6994 13.9672 15.2502L14.4388 14.4334H52H89.5612L90.0328 15.2502ZM59.2302 21.6882C59.498 22.1657 59.7171 22.5896 59.7171 22.6303C59.7171 22.6709 59.1491 23.7027 58.4549 24.9231C57.7607 26.1435 57.1928 27.1544 57.1928 27.1694C57.1928 27.1844 58.3677 27.2053 59.8038 27.2158L62.4148 27.2348L62.8572 27.9964C63.2919 28.7447 64.4274 30.7201 66.1907 33.7949C66.9611 35.1386 67.0716 35.3707 67.0021 35.4993C66.9578 35.5812 66.7192 35.9909 66.472 36.4098L66.0225 37.1714H52.0009H37.9795L37.4618 36.2648L36.9441 35.3583L37.1336 35.0258C37.2378 34.8429 39.1082 31.5718 41.2899 27.7566L45.2566 20.8199L52 20.82H58.7434L59.2302 21.6882ZM79.1325 21.7115C79.4021 22.1842 79.6227 22.5972 79.6227 22.6294C79.6227 22.6616 79.0688 23.6571 78.3917 24.8416C77.7146 26.0261 77.1433 27.0406 77.1222 27.096C77.0899 27.1806 77.502 27.1998 79.6958 27.2157L82.3079 27.2348L83.6779 29.6283C84.4314 30.9447 85.4776 32.7724 86.0028 33.6899C91.0198 42.4543 90.6131 41.7096 90.4957 41.9154C90.4367 42.0187 90.2037 42.4216 89.9778 42.8105L89.5672 43.5177H52H14.4328L14.0222 42.8105C13.7963 42.4216 13.5632 42.0186 13.5041 41.9151C13.3996 41.7318 13.4309 41.6669 14.6801 39.4853C15.3859 38.2525 16.3185 36.6238 16.7524 35.8658C17.1863 35.1079 17.6691 34.2674 17.8252 33.9982L18.1091 33.5086L19.1336 33.5106L20.1581 33.5127L20.6879 34.4276C21.1341 35.198 21.2059 35.3665 21.1431 35.4953C21.102 35.5794 20.5199 36.5947 19.8494 37.7516L18.6304 39.8549L35.3152 39.8732C44.4919 39.8833 59.5089 39.8833 68.6865 39.8732L85.373 39.8549L82.7932 35.3581L80.2134 30.8613L73.9157 30.825L67.6179 30.7888L67.3578 30.3536C67.2147 30.1142 66.9808 29.7063 66.838 29.447L66.5782 28.9755L67.0884 28.087L67.5986 27.1985L70.239 27.1978L72.8793 27.197L73.6497 25.8378L74.4202 24.4787L69.1811 24.4424L63.942 24.4062L63.4535 23.5721C63.1848 23.1133 62.9644 22.6926 62.9637 22.6371C62.9631 22.5816 63.1817 22.1499 63.4494 21.6778L63.9362 20.8194L71.2893 20.8358L78.6423 20.8522L79.1325 21.7115ZM46.8072 25.397C46.5097 25.9203 46.1578 26.5397 46.0253 26.7735L45.7844 27.1985H49.3846H52.9848L53.7365 25.876C54.15 25.1486 54.499 24.5285 54.5122 24.498C54.5255 24.4675 52.919 24.4432 50.9422 24.444L47.3481 24.4456L46.8072 25.397ZM43.1212 31.8395C42.792 32.4175 42.4454 33.0294 42.3509 33.1994L42.1791 33.5086H52.0237H61.8682L61.0755 32.1487L60.2827 30.7888H52.0012H43.7197L43.1212 31.8395ZM0 70.7162V80H52H104V70.7162V61.4325H52H0V70.7162ZM9.55985 68.3046C9.62671 68.6138 9.7377 69.1115 9.80636 69.4107L9.93128 69.9547L11.5631 69.9742L13.1949 69.9936L13.2319 69.8291C13.2522 69.7386 13.3359 69.2587 13.4179 68.7626C13.4999 68.2666 13.5833 67.8341 13.6032 67.8016C13.6232 67.7691 13.8979 67.7425 14.2137 67.7425C14.7718 67.7425 14.7868 67.7471 14.7513 67.9057C14.7312 67.9954 14.5361 69.146 14.3176 70.4624C14.0992 71.7788 13.9034 72.9293 13.8826 73.019L13.8447 73.1822H11.5141C10.2323 73.1822 9.17003 73.1687 9.15351 73.1523C9.13693 73.1358 9.13433 72.9079 9.1476 72.6458L9.17169 72.1692L11.0208 72.1499L12.8699 72.1306L12.9163 71.8404C12.9419 71.6809 12.9812 71.428 13.0039 71.2783L13.045 71.0063H11.0286H9.01216L8.94364 70.8432C8.90592 70.7534 8.7435 70.0762 8.58267 69.3382C8.42191 68.6002 8.27276 67.9392 8.25127 67.8694C8.21614 67.7554 8.27456 67.7425 8.82514 67.7425H9.43818L9.55985 68.3046ZM39.88 67.942C39.8782 68.0517 39.771 68.6636 39.642 69.3019L39.4072 70.4624L39.6709 71.7845C39.8159 72.5117 39.9177 73.1236 39.8971 73.1444C39.8764 73.1653 38.4206 73.1822 36.662 73.1822H33.4646V70.4624V67.7425H36.6741H39.8835L39.88 67.942ZM68.9187 68.7896C68.6179 69.3655 68.3717 69.8714 68.3717 69.9138C68.3717 69.9606 68.563 69.991 68.8585 69.9912L69.3454 69.9914L69.6386 71.5518C69.7999 72.41 69.9163 73.1279 69.8971 73.1472C69.8779 73.1665 68.4721 73.1822 66.773 73.1822H63.6838V72.6745V72.1668H66.0999C67.7499 72.1668 68.516 72.1425 68.516 72.0902C68.516 72.0479 68.4787 71.7868 68.4332 71.5099L68.3506 71.0063H66.7744H65.1983V70.4986V69.9909H66.0991H66.9998L67.2891 69.4123C67.4482 69.094 67.5784 68.8166 67.5784 68.7958C67.5784 68.775 66.9617 68.7579 66.208 68.7579H64.8377V69.1236V69.4893L64.2788 69.4681L63.7198 69.447L63.6995 68.5947L63.6792 67.7425H66.5724H69.4657L68.9187 68.7896ZM20.7285 68.7398C20.6323 69.162 20.189 70.9916 20.0781 71.4234L19.9618 71.8767H18.2389H16.5159V72.5295V73.1822H15.939H15.362V70.8613V68.5403H18.0679H20.7739L20.7285 68.7398ZM25.6341 69.0662C25.9025 70.3174 26.4688 73.0704 26.4688 73.1238C26.4688 73.156 26.2104 73.1822 25.8946 73.1822H25.3204L25.2523 72.9102C25.2149 72.7607 25.1455 72.4669 25.0981 72.2575L25.012 71.8767H23.5496H22.0872L21.9612 72.5295L21.8351 73.1822H21.2232H20.6113L20.6583 72.9939C20.6841 72.8904 20.9002 71.8867 21.1383 70.7637C21.3765 69.6405 21.585 68.6809 21.6018 68.631C21.625 68.5614 22.0853 68.5403 23.5767 68.5403H25.5214L25.6341 69.0662ZM32.5992 70.8613V73.1822H32.0222H31.4452V71.369V69.5558H30.2729H29.1005L28.7401 71.3509L28.3797 73.146L27.5324 73.1664L26.6852 73.1868V72.6768V72.1668H27.0458C27.2441 72.1668 27.4064 72.1566 27.4064 72.1441C27.4064 72.1093 28.0478 68.8891 28.0918 68.7035L28.1303 68.5403H30.3648H32.5992V70.8613ZM45.2205 68.562C45.2205 68.574 45.4315 69.5711 45.6893 70.7777C45.9472 71.9843 46.1581 73.019 46.1581 73.0769C46.1581 73.1601 46.0384 73.1822 45.5883 73.1822H45.0187L44.8989 72.6201C44.8331 72.3109 44.7657 72.0165 44.7491 71.9658C44.7258 71.8945 44.3895 71.8782 43.2579 71.8933L41.7969 71.913L41.6585 72.5476L41.52 73.1822H40.9542C40.4558 73.1822 40.3883 73.1666 40.3883 73.0507C40.3883 72.9244 41.2266 68.8171 41.2904 68.631C41.3142 68.5614 41.776 68.5403 43.271 68.5403C44.3432 68.5403 45.2205 68.5501 45.2205 68.562ZM51.2067 69.048V69.5558H49.5479H47.889V71.369V73.1822H47.3121H46.7351V70.8613V68.5403H48.9709H51.2067V69.048ZM57.0315 70.8432L57.0125 73.146L54.4341 73.165L51.8558 73.184V70.8622V68.5403H54.4532H57.0506L57.0315 70.8432ZM59.068 69.447V70.3536H60.436H61.8041L61.8244 69.4651L61.8447 68.5766L62.4397 68.5556L63.0347 68.5345V70.8613V73.1881L62.4397 73.167L61.8447 73.146L61.8244 72.2575L61.8041 71.369H60.436H59.068V72.2785V73.1881L58.473 73.167L57.8779 73.146L57.8589 70.8432L57.8399 68.5403H58.4539H59.068V69.447ZM75.1512 68.5712C75.1512 68.5881 75.3621 69.5836 75.62 70.7832C75.8778 71.9829 76.0888 73.0135 76.0888 73.0734C76.0888 73.1611 75.977 73.1822 75.5132 73.1822C74.8625 73.1822 74.9416 73.2669 74.7684 72.3844L74.6759 71.913H73.2053H71.7345L71.6817 72.1306C71.6525 72.2502 71.5914 72.5359 71.5457 72.7652L71.4627 73.1822H70.8909C70.3945 73.1822 70.3189 73.1655 70.3186 73.0553C70.3181 72.937 71.157 68.8306 71.2224 68.631C71.2451 68.5614 71.7059 68.5403 73.2016 68.5403C74.2739 68.5403 75.1512 68.5542 75.1512 68.5712ZM82.2191 68.6003C82.2191 68.6333 82.1198 69.1555 81.9983 69.7607L81.7774 70.8613L81.9983 71.9618C82.1198 72.5671 82.2191 73.0893 82.2191 73.1223C82.2191 73.1552 80.9696 73.1822 79.4424 73.1822H76.6657V70.8613V68.5403H79.4424C80.9696 68.5403 82.2191 68.5673 82.2191 68.6003ZM88.1331 70.8622V73.184L85.5187 73.165L82.9043 73.146L82.8852 70.9345C82.8747 69.7183 82.8818 68.6821 82.901 68.6317C82.9281 68.5606 83.5107 68.5403 85.5345 68.5403H88.1331V70.8622ZM94.1914 70.3494V72.1585L94.4979 72.1808L94.8044 72.2031V72.6745V73.146L91.6852 73.1649L88.5659 73.1838V72.6753V72.1668H88.8484C89.1273 72.1668 89.1318 72.1624 89.2024 71.8223C89.2418 71.6329 89.4121 70.8169 89.5809 70.0091L89.8877 68.5403H92.0396H94.1914V70.3494ZM34.6186 69.3744V69.9909H36.4519H38.2853L38.3992 69.4871C38.4619 69.2099 38.5132 68.9325 38.5132 68.8706C38.5132 68.7715 38.2781 68.7579 36.5659 68.7579H34.6186V69.3744ZM16.5159 70.2267V70.8976L17.7591 70.883L19.0023 70.8684L19.1261 70.3753C19.1942 70.1041 19.2683 69.8087 19.2907 69.7189L19.3314 69.5558H17.9237H16.5159V70.2267ZM22.4683 70.1179C22.4021 70.4271 22.342 70.722 22.3348 70.7732C22.3247 70.8457 22.6006 70.87 23.5692 70.882C24.7833 70.8971 24.8157 70.8937 24.7837 70.7525C24.7657 70.6727 24.7103 70.3708 24.6607 70.0816L24.5705 69.5558H23.5796H22.5887L22.4683 70.1179ZM42.1943 69.9345C42.1492 70.1451 42.0943 70.4479 42.0724 70.6074L42.0325 70.8976H43.2659C44.3173 70.8976 44.4983 70.8815 44.4924 70.7888C44.4886 70.7289 44.4318 70.4352 44.3662 70.136L44.2469 69.592L43.2616 69.5719L42.2764 69.5518L42.1943 69.9345ZM53.0097 70.8613V72.1668H54.4521H55.8946V70.8613V69.5558H54.4521H53.0097V70.8613ZM72.0958 70.1541C72.0308 70.4833 71.9777 70.7851 71.9777 70.825C71.9778 70.8705 72.4346 70.8976 73.2039 70.8976C73.973 70.8976 74.4301 70.8705 74.4303 70.825C74.4305 70.7851 74.3751 70.4833 74.3073 70.1541L74.184 69.5558H73.199H72.2139L72.0958 70.1541ZM77.8197 69.9547V70.3536H79.2541H80.6885L80.7365 70.0816C80.7629 69.932 80.8011 69.7525 80.8215 69.6827C80.856 69.5646 80.7523 69.5558 79.3391 69.5558H77.8197V69.9547ZM84.0943 70.8613V72.1668H85.5007H86.9071V70.8613V69.5558H85.5007H84.0943V70.8613ZM90.8426 69.6464C90.7955 69.806 90.3689 72.0046 90.3689 72.0872C90.3689 72.1421 90.7831 72.1668 91.7032 72.1668H93.0374V70.8613V69.5558H91.9534C91.1484 69.5558 90.8624 69.5791 90.8426 69.6464ZM34.6186 71.5503V72.1668H36.5659C37.6369 72.1668 38.5132 72.1402 38.5132 72.1076C38.5132 72.0189 38.3663 71.2065 38.324 71.0607C38.2901 70.9442 38.1376 70.9338 36.4529 70.9338H34.6186V71.5503ZM77.8197 71.7679V72.1668H79.3391C80.7523 72.1668 80.856 72.158 80.8215 72.0399C80.8011 71.97 80.7629 71.7906 80.7365 71.641L80.6885 71.369H79.2541H77.8197V71.7679Z" fill="#AEB6C1"/>
</svg>
