<svg width="213" height="53" viewBox="0 0 213 53" fill="none" xmlns="http://www.w3.org/2000/svg">
<path fill-rule="evenodd" clip-rule="evenodd" d="M94.4976 41.7622C93.7607 42.4524 87.3877 51.8033 87.3877 51.8033C87.3877 51.8033 88.2707 51.8033 89.3498 51.8033H91.312L93.6143 48.5285C96.3254 44.6719 95.8874 44.837 97.4299 47.0894L98.6809 48.9157H96.5889H94.4976L93.4463 50.2939L92.3738 51.8033H98.4096C101.821 51.8033 104.648 51.8626 104.708 51.8033C104.708 51.8033 97.8275 41.6236 97.2053 41.3399C96.1517 40.8597 95.3237 40.9889 94.4976 41.7622ZM166.115 41.3028C165.673 41.5168 159.677 49.8452 158.505 51.8033C158.505 51.8033 158.891 51.8033 160.541 51.8033H162.603L164.898 48.5219C166.052 46.8723 166.586 45.7942 166.942 45.324C167.995 43.9299 169.003 47.5174 170.052 48.9157H167.692H165.591L164.657 50.3595L163.754 51.8033H166.64H172.938H176.088L172.784 46.9468C168.627 40.9127 167.997 40.3935 166.115 41.3028ZM79.7773 46.5531V51.8033H81.4831H83.1889V47.9969V44.1905L85.8787 44.1802L88.5686 44.17L89.4871 42.9393C89.4871 42.9393 90.4888 41.4144 90.5368 41.3028C90.5368 41.3028 88.1498 41.3028 85.1789 41.3028H79.7773V46.5531ZM101.559 44.1905H103.921H106.282V47.9969V51.8033H107.988H109.694V47.9969V44.1905H111.513H113.333L114.228 43.0748C114.72 42.461 115.467 41.3028 115.467 41.3028C115.467 41.3028 114.215 41.3028 109.459 41.3028H103.42L101.559 44.1905ZM117.042 43.8313C117.042 48.056 118.057 48.9776 122.881 49.1336L125.702 49.2247V50.5138V51.8033H127.408H129.113V46.5531V41.3028H127.408H125.702V43.7967V46.2906H123.585C120.538 46.2906 120.453 46.2163 120.453 43.525V41.3028H118.748H117.042V43.8313ZM144.859 46.5531V51.8033H146.565H148.27V49.8345V47.8656H151.157H154.044V49.8345V51.8033H155.881H157.718V46.5531V41.3028H155.881H154.044V43.1404V44.978H151.157H148.27V43.1404V41.3028H146.565H144.859V46.5531Z" fill="#2864B2"/>
<path fill-rule="evenodd" clip-rule="evenodd" d="M90.053 0.232616C82.6972 1.10153 79.8215 3.75815 79.8194 9.68619C79.8171 16.3771 83.7159 19.1274 93.2021 19.1274C102.571 19.1274 106.581 16.2978 106.581 9.68619C106.581 2.60336 100.316 -0.979926 90.053 0.232616ZM154.085 0.263855C153.652 0.400361 150.7 2.85616 147.524 5.72095L141.751 10.9297L141.68 5.71412L141.609 0.498278H138.99H136.371V8.9249V16.0895C136.371 16.8976 136.692 17.6726 137.263 18.2441C138.208 18.8741 138.325 19.1366 139.472 19.1366C140.989 19.1366 140.485 19.5152 148.146 12.6261L152.904 8.34685V13.6197V18.8925L155.528 18.8741L158.152 18.8925V10.6814C158.152 2.16523 158.186 1.44962 157.007 0.676786C156.195 0.144937 154.998 -0.0243832 154.085 0.263855ZM171.536 0.263855C163.786 0.942973 160.21 4.51891 160.863 10.6814C161.495 16.649 165.436 19.1274 174.292 19.1274C183.758 19.1274 187.655 16.3776 187.669 9.68619C187.685 2.68054 181.715 -0.627898 171.536 0.263855ZM109.341 9.68619V18.8741H112.228H115.115V16.528V14.1822L121.637 14.0998L125.828 13.9586C127.248 13.9108 128.649 13.6193 129.969 13.0967C135.688 10.186 134.739 2.77032 128.407 0.889158C127.355 0.576506 125.313 0.498278 118.216 0.498278H109.341V9.68619ZM190.431 9.68619V18.8741H193.449H196.467V15.3302V11.7863H201.715H206.964V15.3302V18.8741H209.982H212.999V9.68619V0.498278H209.982H206.964V3.64842V6.79856H201.715H196.467V3.64842V0.498278H193.449H190.431V9.68619ZM97.9155 5.51068C99.9693 6.02809 100.55 6.94767 100.55 9.68225C100.55 13.558 99.2702 14.2584 92.4644 14.1066C86.8606 13.9817 85.6149 13.1889 85.6151 9.74814C85.6154 7.19653 86.2641 6.25595 88.6097 5.40725C89.3481 5.14027 96.7714 5.2227 97.9155 5.51068ZM179.671 5.486C182.412 6.85264 182.953 11.9997 180.196 13.6239C178.966 14.3487 171.536 14.5143 169.377 13.8864C165.535 12.7691 165.603 6.52187 169.377 5.486C171.083 5.01742 178.578 4.94103 179.671 5.486ZM126.787 5.7934C127.541 6.13729 127.853 6.98442 127.599 7.99719C127.295 9.21026 126.213 9.42368 120.372 9.42368H115.115V7.45484V5.486H120.613C124.257 5.486 126.339 5.58969 126.787 5.7934ZM84.4108 25.1744C79.1988 26.2055 78.0412 32.42 82.7051 34.8577C83.9508 35.5089 84.2531 35.5483 88.6753 35.6347L93.3333 35.6749V34.2565V32.7872H89.371C85.0197 32.7872 83.6474 32.6793 83.0987 31.4747C82.5374 29.2683 83.0987 27.7995 87.56 27.7995H91.2339L92.0212 26.7495L93.3333 24.9119C93.3333 24.9119 85.8941 24.8812 84.4108 25.1744ZM94.383 30.2886V35.6749H96.0888H97.7946V31.8684V28.062H100.419H103.043V31.8684V35.6749H104.886H106.728L106.657 30.359L106.586 25.0431L100.484 24.9728L94.383 24.9022V30.2886ZM107.504 30.2934V35.6749H113.671H119.838V34.231V32.7872H115.377H110.916V32.1309V31.4747H114.173H117.431L119.051 28.8495H110.916C110.916 28.8495 110.916 27.8969 110.916 27.5637H114.176H117.476L119.838 24.9119H107.504V30.2934ZM120.626 30.2934V35.6749H128.761C133.235 35.6749 136.634 35.6749 136.896 35.6749C136.371 34.8443 135.321 33.3122 135.059 32.7872H132.96V28.8495V24.9119H131.254H129.548V28.8495V32.7872H126.793H124.037V28.8495V24.9119H122.331H120.626V30.2934ZM140.393 25.1859C134.348 26.3817 134.303 34.0995 140.334 35.3934C141.055 35.5483 143.411 35.6749 145.569 35.6749H149.492V34.231V32.7872H145.548C140.404 32.7872 139.258 32.3323 139.258 30.2905C139.258 28.5981 140.419 28.062 144.084 28.062H147.376L148.434 26.6599C149.016 25.8889 149.23 25.4369 149.492 25.0849C147.918 24.9119 141.62 24.9119 140.393 25.1859ZM150.542 30.2934V35.6749H152.248H153.954V31.8684V28.062H156.578H159.202V31.8684V35.6749H160.908H162.614V30.2934V24.9119H156.578H150.542V30.2934ZM170.701 25.1854C170.353 25.3883 163.953 34.282 163.139 35.6749C164.976 35.6749 163.932 35.6796 165.5 35.6749H167.075L168.386 33.9318C169.034 32.9799 170.099 31.4589 170.752 30.5517L171.939 28.9026L174.296 32.28L176.653 35.6578L178.359 35.6749C179.929 35.6814 179.147 35.6578 180.721 35.6749C179.746 34.0326 173.479 25.3715 173.105 25.1712C172.492 24.8428 171.276 24.8499 170.701 25.1854ZM188.161 25.765C187.329 26.6528 181.435 35.2262 181.246 35.6749C182.033 35.6919 181.659 35.6749 183.163 35.6749H185.137L187.439 32.3935C190.431 28.062 189.644 28.062 191.481 30.9496L192.793 32.7872H190.431H188.331L187.439 34.0998C186.97 34.7881 186.494 35.5767 186.494 35.6749C186.494 35.773 189.223 35.6749 192.558 35.6749C197.331 35.6749 198.666 35.6727 198.566 35.4123C198.372 34.9075 192.296 26.1756 191.673 25.5025C190.8 24.5593 189.176 24.6809 188.161 25.765ZM199.091 30.2934V35.6749L204.143 35.6685C210.023 35.6612 211.009 35.4953 212.045 34.3387C212.989 33.2849 212.929 31.4271 211.924 30.6136C211.555 30.3144 211.162 30.1621 211.162 30.1621C212.183 29.4987 212.735 27.3616 211.822 26.2767C210.874 25.1487 209.509 24.9119 203.961 24.9119H199.091V30.2934ZM208.964 27.8258C209.598 28.0346 209.466 29.0608 208.801 29.1121H202.502V27.7995C202.502 27.7995 206.701 27.7995 208.801 27.7995C208.858 27.7995 208.913 27.809 208.964 27.8258ZM208.362 31.4756C208.953 31.4749 209.671 31.8645 209.44 32.4085C209.299 32.743 208.874 32.7872 208.511 32.7872C207.814 32.7872 206.936 32.7872 205.62 32.7872H202.502V32.1309V31.4747L205.586 31.4786C205.586 31.4786 207.249 31.4767 208.362 31.4756Z" fill="#77787B"/>
<path d="M133.573 41.3035H130.424V50.0408C130.424 50.5058 130.561 50.9604 130.819 51.3473L130.869 51.4223C130.922 51.5015 130.983 51.5753 131.05 51.6427C131.321 51.914 131.689 52.0664 132.073 52.0664H132.17C132.567 52.0664 132.952 51.9255 133.256 51.6686L139.609 46.2912C139.706 46.1943 139.871 46.2629 139.871 46.3999V51.8039H143.02V43.4309C143.02 43.0676 142.936 42.7094 142.773 42.3845L142.665 42.1685C142.554 41.9457 142.386 41.7558 142.179 41.6176C141.877 41.4158 141.508 41.3368 141.15 41.3966L140.78 41.4583C140.357 41.5288 139.961 41.7122 139.634 41.9892L136.722 44.4536L133.766 47.1638C133.692 47.2317 133.573 47.1792 133.573 47.0787V41.3035Z" fill="#2864B2"/>
<rect x="16.7949" width="52.4852" height="51.9773" fill="#A7A9AC"/>
<path fill-rule="evenodd" clip-rule="evenodd" d="M28.5836 2.63306C25.7441 6.16013 23.2702 9.48121 21.0182 12.7892C19.0191 15.7257 16.8271 19.1081 16.4951 19.769C16.3828 19.9925 15.6683 21.2218 14.9073 22.5007C12.0984 27.2213 11.9778 27.4347 9.25865 32.4858C8.30113 34.2644 4.37065 42.0953 3.59462 43.7704C3.26343 44.4851 2.79245 45.5007 2.54768 46.0273C1.51036 48.2601 0 51.9773 0 51.9773H3.41153H6.82307L7.46677 50.6779C7.76012 50.0008 8.21239 48.9951 8.47189 48.443C8.73125 47.8908 8.94356 47.4184 8.94356 47.3929C8.94356 47.3675 9.1666 46.8652 9.43917 46.2766C11.3583 42.1336 14.7626 35.4078 16.0044 33.3065C16.4823 32.4976 17.3268 31.0223 18.001 29.8186C18.5246 28.8835 21.1053 24.5332 21.7334 23.5266C23.3984 20.8582 26.5545 16.0871 27.0266 15.5248L27.3711 15.1145L27.3761 33.5459L27.381 51.9773L30.0985 51.9769L32.816 51.9765L33.4124 50.2329C33.9284 48.7249 35.9122 43.8571 36.771 41.9922C37.4636 40.4877 40.3725 34.6659 41.1448 33.2381C45.7385 24.746 51.4371 16.2169 57.5035 8.75408C59.4716 6.33303 62.5946 2.74919 64.0752 1.21258L65.0816 0C65.0816 0 63.1118 0 60.7043 0H56.3269L54.951 1.60719C47.0807 10.8001 40.3558 20.6908 34.6626 31.4464L34.0543 32.5955L34.0194 16.2978L33.9844 0H32.3439H30.7032L28.5836 2.63306Z" fill="#2864B2"/>
</svg>
