<svg width="137" height="54" viewBox="0 0 137 54" fill="none" xmlns="http://www.w3.org/2000/svg">
<path fill-rule="evenodd" clip-rule="evenodd" d="M15.1884 43.2417C14.4281 43.915 7.85238 53.0376 7.85238 53.0376C7.85238 53.0376 8.76353 53.0376 9.87694 53.0376H11.9015L14.277 49.8428C17.0743 46.0803 16.6224 46.2414 18.214 48.4388L19.5048 50.2205H17.3462H15.1884L14.1037 51.565L12.997 53.0376H19.2248C22.7448 53.0376 25.6621 53.0955 25.7233 53.0376C25.7233 53.0376 18.6242 43.1065 17.9822 42.8296C16.8951 42.3612 16.0408 42.4872 15.1884 43.2417ZM89.0839 42.7935C88.6271 43.0022 82.4405 51.1274 81.2315 53.0376C81.2315 53.0376 81.6296 53.0376 83.3324 53.0376H85.4602L87.8281 49.8364C89.019 48.2263 89.5702 47.1744 89.9369 46.716C91.0243 45.3566 92.0639 48.8565 93.1455 50.2205H90.711H88.5424L87.5787 51.6291L86.647 53.0376H89.6255H96.124H99.3732L95.965 48.2997C91.6752 42.413 91.0256 41.9064 89.0839 42.7935ZM0 47.9156V53.0376H1.76002H3.52003V49.3241V45.6107L6.29544 45.6007L9.07085 45.5907L10.0186 44.3901C10.0186 44.3901 11.0521 42.9024 11.1016 42.7935C11.1016 42.7935 8.6387 42.7935 5.5733 42.7935H0V47.9156ZM22.4741 45.6107H24.911H27.3479V49.3241V53.0376H29.108H30.868V49.3241V45.6107H32.7452H34.6225L35.5464 44.5222C36.0543 43.9234 36.825 42.7935 36.825 42.7935C36.825 42.7935 35.5334 42.7935 30.6256 42.7935H24.3944L22.4741 45.6107ZM38.4496 45.2603C38.4496 49.3818 39.4969 50.2809 44.4743 50.4331L47.3851 50.5219V51.7797V53.0376H49.1451H50.9051V47.9156V42.7935H49.1451H47.3851V45.2265V47.6595H45.201C42.0565 47.6595 41.9696 47.587 41.9696 44.9614V42.7935H40.2096H38.4496V45.2603ZM67.1514 47.9156V53.0376H68.9114H70.6714V51.1169V49.1961H73.6499H76.6284V51.1169V53.0376H78.5238H80.4192V47.9156V42.7935H78.5238H76.6284V44.5862V46.379H73.6499H70.6714V44.5862V42.7935H68.9114H67.1514V47.9156Z" fill="#2864B2"/>
<path fill-rule="evenodd" clip-rule="evenodd" d="M10.567 0.232477C3.00266 1.10087 0.0454538 3.75591 0.0432949 9.68041C0.0408661 16.3673 4.05029 19.116 13.8055 19.116C23.44 19.116 27.5636 16.2881 27.5636 9.68041C27.5636 2.60181 21.1213 -0.979341 10.567 0.232477ZM76.4147 0.263697C75.9695 0.400122 72.9334 2.85445 69.668 5.71754L63.731 10.9232L63.6578 5.71072L63.585 0.497981H60.8917H58.1987V8.91958V16.0615C58.1987 16.8796 58.5296 17.6629 59.1162 18.2332C60.0877 18.8628 60.2078 19.1252 61.388 19.1252C62.9475 19.1252 62.4288 19.5035 70.3071 12.6185L75.2003 8.34188V13.6115V18.8812L77.899 18.8628L80.5977 18.8812V10.675C80.5977 2.16394 80.6319 1.44876 79.4194 0.676382C78.585 0.144851 77.3536 -0.0243686 76.4147 0.263697ZM94.3609 0.263697C86.3915 0.94241 82.714 4.51621 83.3849 10.675C84.035 16.6391 88.0873 19.116 97.1945 19.116C106.93 19.116 110.936 16.3678 110.952 9.68041C110.967 2.67894 104.829 -0.627523 94.3609 0.263697ZM30.4023 9.68041V18.8628H33.3709H36.3394V16.5182V14.1738L43.047 14.0914L47.3653 13.95C48.8201 13.9024 50.2566 13.6113 51.6152 13.0889C57.4965 10.1799 56.5204 2.76866 50.0087 0.888627C48.9266 0.576162 46.8265 0.497981 39.5287 0.497981H30.4023V9.68041ZM113.791 9.68041V18.8628H116.895H119.998V15.321V11.7793H125.396H130.793V15.321V18.8628H133.897H137V9.68041V0.497981H133.897H130.793V3.64624V6.7945H125.396H119.998V3.64624V0.497981H116.895H113.791V9.68041ZM18.6526 5.50739C20.7645 6.02449 21.3618 6.94352 21.3618 9.67648C21.3618 13.5499 20.0456 14.2499 13.0469 14.0982C7.28411 13.9733 6.00305 13.181 6.00332 9.74233C6.00359 7.19223 6.6707 6.25222 9.08278 5.40402C9.84219 5.13721 17.4759 5.21959 18.6526 5.50739ZM102.727 5.48273C105.546 6.84855 106.101 11.9925 103.267 13.6157C102.002 14.3401 94.3604 14.5056 92.1402 13.8781C88.1893 12.7615 88.2592 6.51798 92.1402 5.48273C93.8951 5.01442 101.603 4.93808 102.727 5.48273ZM48.3423 5.78995C49.1179 6.13363 49.439 6.98025 49.1778 7.99242C48.8648 9.20476 47.7521 9.41806 41.7454 9.41806H36.3394V7.45039V5.48273H41.9939C45.7405 5.48273 47.8824 5.58636 48.3423 5.78995ZM4.7649 25.1594C-0.594941 26.1899 -1.78533 32.4006 3.01076 34.8369C4.29182 35.4878 4.60271 35.5271 9.15025 35.6134L13.9404 35.6536V34.2361V32.7677H9.86566C5.39099 32.7677 3.97985 32.6598 3.41556 31.4559C2.83831 29.2508 3.41556 27.7829 8.00331 27.7829H11.7815L12.5911 26.7335L13.9404 24.897C13.9404 24.897 6.29019 24.8663 4.7649 25.1594ZM15.0199 30.2706V35.6536H16.774H18.5281V31.8494V28.0453H21.2268H23.9255V31.8494V35.6536H25.8202H27.7147L27.6418 30.3409L27.5687 25.0282L21.2943 24.9579L15.0199 24.8873V30.2706ZM28.5132 30.2753V35.6536H34.8551H41.197V34.2106V32.7677H36.6093H32.0215V32.1118V31.4559H35.3714H38.7215L40.3874 28.8323H32.0215C32.0215 28.8323 32.0215 27.8802 32.0215 27.5473H35.3738H38.7682L41.197 24.897H28.5132V30.2753ZM42.0066 30.2753V35.6536H50.3725C54.9738 35.6536 58.4685 35.6536 58.7384 35.6536C58.1987 34.8235 57.1192 33.2924 56.8493 32.7677H54.6904V28.8323V24.897H52.9363H51.1821V28.8323V32.7677H48.3485H45.5149V28.8323V24.897H43.7608H42.0066V30.2753ZM62.3347 25.1709C56.118 26.3659 56.0716 34.0792 62.2737 35.3723C63.0155 35.5271 65.4381 35.6536 67.6573 35.6536H71.692V34.2106V32.7677H67.6354C62.3457 32.7677 61.1672 32.313 61.1672 30.2724C61.1672 28.581 62.3614 28.0453 66.1303 28.0453H69.5156L70.604 26.644C71.2022 25.8735 71.4222 25.4217 71.692 25.0699C70.0728 24.897 63.596 24.897 62.3347 25.1709ZM72.7715 30.2753V35.6536H74.5257H76.2798V31.8494V28.0453H78.9785H81.6771V31.8494V35.6536H83.4313H85.1854V30.2753V24.897H78.9785H72.7715V30.2753ZM93.5025 25.1704C93.1446 25.3732 86.5628 34.2615 85.7252 35.6536C87.6142 35.6536 86.5415 35.6583 88.154 35.6536H89.7732L91.1209 33.9115C91.788 32.9602 92.8831 31.4401 93.5543 30.5334L94.7749 28.8853L97.1991 32.2608L99.6233 35.6365L101.377 35.6536C102.992 35.6601 102.187 35.6365 103.806 35.6536C102.803 34.0123 96.359 25.3564 95.9742 25.1562C95.3435 24.828 94.0932 24.8351 93.5025 25.1704ZM111.457 25.7497C110.602 26.6369 104.54 35.2052 104.346 35.6536C105.156 35.6706 104.771 35.6536 106.318 35.6536H108.347L110.715 32.3741C113.791 28.0453 112.982 28.0453 114.871 30.9312L116.22 32.7677H113.791H111.632L110.715 34.0794C110.232 34.7673 109.743 35.5555 109.743 35.6536C109.743 35.7517 112.549 35.6536 115.979 35.6536C120.887 35.6536 122.26 35.6515 122.157 35.3912C121.958 34.8867 115.709 26.16 115.069 25.4873C114.171 24.5447 112.501 24.6661 111.457 25.7497ZM122.697 30.2753V35.6536L127.892 35.6473C133.939 35.6399 134.953 35.4741 136.019 34.3182C136.989 33.2651 136.927 31.4084 135.894 30.5954C135.514 30.2963 135.111 30.1441 135.111 30.1441C136.16 29.4811 136.728 27.3453 135.789 26.261C134.814 25.1337 133.41 24.897 127.705 24.897H122.697V30.2753ZM132.843 27.8071C133.493 28.006 133.36 29.044 132.682 29.0947H126.205V27.7829C126.205 27.7829 130.523 27.7829 132.682 27.7829C132.739 27.7829 132.792 27.7916 132.843 27.8071ZM132.248 31.4568C132.847 31.4562 133.581 31.8459 133.338 32.3929C133.192 32.7245 132.764 32.7677 132.401 32.7677C131.682 32.7677 130.775 32.7677 129.411 32.7677H126.205V32.1118V31.4559L129.376 31.4598C129.376 31.4598 131.104 31.4579 132.248 31.4568Z" fill="#77787B"/>
<path d="M55.4744 42.4507H52.0977V51.0367C52.0977 51.5128 52.2481 51.9767 52.5275 52.3622L52.5686 52.419C52.6297 52.5032 52.699 52.5812 52.7756 52.6516C53.0635 52.9164 53.4403 53.0634 53.8315 53.0634H53.9715C54.3984 53.0634 54.8131 52.921 55.15 52.6588L61.9465 47.3688C62.0541 47.2698 62.2279 47.3461 62.2279 47.4922V52.8045H65.6047V44.578C65.6047 44.2011 65.5104 43.8303 65.3305 43.4993L65.2415 43.3356C65.1107 43.095 64.919 42.893 64.6856 42.7499C64.3706 42.5567 63.9973 42.4814 63.632 42.5374L63.2107 42.602C62.7508 42.6725 62.3166 42.8596 61.9494 43.1454L58.8512 45.5568L55.6723 48.2373C55.5941 48.3032 55.4744 48.2476 55.4744 48.1453V42.4507Z" fill="#2864B2"/>
</svg>
