<svg width="0" height="0" class="hidden">
  <symbol fill="none" xmlns="http://www.w3.org/2000/svg" viewBox="0 0 24 40" id="arrow-galery">
    <path d="M22 18.1264L20.1145 20L2 38" stroke="white" stroke-width="3"></path>
    <path d="M2.11523 2L16.5273 15.1429" stroke="white" stroke-width="3"></path>
  </symbol>
  <symbol fill="none" xmlns="http://www.w3.org/2000/svg" viewBox="0 0 25 25" id="close">
    <rect y="23.3346" width="15.8714" height="2" transform="rotate(-45 0 23.3346)" fill="#AEB6C1"></rect>
    <rect x="13.9336" y="9.40161" width="12.2946" height="2" transform="rotate(-45 13.9336 9.40161)" fill="#AEB6C1"></rect>
    <rect x="22.6289" y="24.0416" width="32" height="2" transform="rotate(-135 22.6289 24.0416)" fill="#AEB6C1"></rect>
  </symbol>
  <symbol fill="none" xmlns="http://www.w3.org/2000/svg" viewBox="0 0 100 163" id="decorative-logo">
    <path fill-rule="evenodd" clip-rule="evenodd" d="M51.6968 30.8605V61.7223L43.541 75.5639C29.6616 99.121 0 163 0 163C0 163 5.42447 163 12.0527 163H24.1067L28.8874 152.356C31.5178 146.503 37.5872 134.049 42.3753 124.683L51.0813 107.653L51.4124 135.327L51.7435 163H70.1833H88.623V103.396C88.623 70.6131 88.4101 43.791 88.1516 43.791C87.13 43.791 68.3037 72.7807 59.5645 87.8095C49.8874 104.455 32.4828 138.326 26.3998 152.356L23 161H13.5H3.5C3.5 161 11.8349 140.679 22.8143 118.601C43.2997 77.4116 71.3501 33.5281 94.5423 6.38619L100 0H75.8478H51.6968V30.8605Z" fill="white"></path>
  </symbol>
  <symbol fill="none" xmlns="http://www.w3.org/2000/svg" viewBox="0 0 27 37" id="download-btn">
    <path d="M13.1621 0L13.1621 25L2.3514 14.4068" stroke="#2864B2" stroke-width="4"></path>
    <path d="M23.9727 14.4739L17.2586 22.3686" stroke="#2864B2" stroke-width="4"></path>
    <rect y="32.1082" width="27" height="4" fill="#2864B2"></rect>
  </symbol>
  <symbol fill="none" xmlns="http://www.w3.org/2000/svg" viewBox="0 0 23 23" id="fb">
    <path d="M23 11.5C23 5.14805 17.852 0 11.5 0C5.14805 0 0 5.14805 0 11.5C0 17.852 5.14805 23 11.5 23C11.5674 23 11.6348 23 11.7021 22.9955V14.0471H9.23145V11.1676H11.7021V9.04727C11.7021 6.59004 13.2025 5.25137 15.3947 5.25137C16.4459 5.25137 17.3488 5.32773 17.6094 5.36367V7.9332H16.1C14.9096 7.9332 14.676 8.49922 14.676 9.33027V11.1631H17.5285L17.1557 14.0426H14.676V22.5553C19.4826 21.1762 23 16.7514 23 11.5Z" fill="#AEB6C1"></path>
  </symbol>
  <symbol fill="none" xmlns="http://www.w3.org/2000/svg" viewBox="0 0 36 52" id="map-mark">
    <path d="M3.40302 26.9654L18.4755 50.5759C18.8845 51.2167 19.8307 51.1847 20.1956 50.5178L32.9666 27.1784C34.9282 23.5933 35.5892 19.4401 34.8372 15.4232C34.1315 11.6536 32.2208 8.21502 29.3924 5.62492L28.5995 4.89879C26.8058 3.25627 24.6678 2.03536 22.3417 1.32531L22.1444 1.26509C19.4329 0.437406 16.547 0.36526 13.7975 1.05643C10.33 1.9281 7.26785 3.96589 5.12482 6.82784L4.1033 8.19206C2.51609 10.3117 1.46221 12.7822 1.03066 15.3949C0.367079 19.4123 1.21201 23.5332 3.40302 26.9654Z" fill="white"></path>
  </symbol>
  <symbol fill="none" xmlns="http://www.w3.org/2000/svg" viewBox="0 0 10 7" id="mini-arrow">
    <path d="M5.53516 6.00046L4.95625 5.3689L1.0002 1.05298" stroke="black"></path>
    <path d="M9 1.16333L6.37694 4.2112" stroke="black"></path>
  </symbol>
  <symbol fill="none" xmlns="http://www.w3.org/2000/svg" viewBox="0 0 166 167" id="no-picture">
    <ellipse cx="83" cy="83.1826" rx="83" ry="83.1826" fill="#AEB6C1"></ellipse>
    <path d="M133.122 55.5746H33.0469V118.304H133.122V55.5746Z" fill="white"></path>
    <circle cx="82.7908" cy="96.5209" r="29.9866" fill="#AEB6C1"></circle>
    <circle cx="82.8797" cy="96.5116" r="27.7444" fill="white"></circle>
    <circle cx="83.4029" cy="96.5758" r="18.3859" fill="#AEB6C1"></circle>
    <circle cx="83.6069" cy="96.485" r="10.9321" fill="white"></circle>
    <path d="M103.719 53.2004H61.9912L69.1133 39.778H96.5974L103.719 53.2004Z" fill="white"></path>
  </symbol>
  <symbol fill="none" xmlns="http://www.w3.org/2000/svg" viewBox="0 0 57 25" id="pdf-btn">
    <path d="M1.43466 20H4.0696V15.0852H6.85369C10.2131 15.0852 12.017 13.0682 12.017 10.2699C12.017 7.4929 10.2344 5.45455 6.8892 5.45455H1.43466V20ZM4.0696 12.919V7.65625H6.48438C8.45881 7.65625 9.33239 8.72159 9.33239 10.2699C9.33239 11.8182 8.45881 12.919 6.49858 12.919H4.0696ZM19.2347 20C23.6665 20 26.2944 17.2585 26.2944 12.7131C26.2944 8.18182 23.6665 5.45455 19.3342 5.45455H14.3058V20H19.2347ZM16.9407 17.7202V7.73438H19.185C22.1396 7.73438 23.6808 9.3821 23.6808 12.7131C23.6808 16.0582 22.1396 17.7202 19.1069 17.7202H16.9407ZM28.7979 20H31.4329V13.821H37.4769V11.6122H31.4329V7.66335H38.1161V5.45455H28.7979V20Z" fill="#2864B2"></path>
    <rect x="45" y="18" width="12" height="2" fill="#2864B2"></rect>
    <path d="M50.8838 5L50.8838 14.1698L46.9983 10.2843" stroke="#2864B2" stroke-width="2"></path>
    <path d="M55.5664 10.0004L53.1533 12.8961" stroke="#2864B2" stroke-width="2"></path>
  </symbol>
  <symbol fill="none" xmlns="http://www.w3.org/2000/svg" viewBox="0 0 11 15" id="play">
    <path d="M10.4008 6.12043L0.800781 13.3493V1.30115L6.80078 4.91561" stroke="black"></path>
  </symbol>
  <symbol fill="none" xmlns="http://www.w3.org/2000/svg" viewBox="0 0 10 17" id="req-arr">
    <path d="M1 12.406L8.72615 4.51373L8.72615 11.2021" stroke="#2864B2"></path>
    <path d="M2.19629 4.49231L6.66932 4.07693" stroke="#2864B2"></path>
  </symbol>
  <symbol fill="none" xmlns="http://www.w3.org/2000/svg" viewBox="0 0 19 18" id="search">
    <g opacity="0.2">
      <path d="M7.97953 1.08008C4.41555 1.08008 1.51953 3.82367 1.51953 7.20008C1.51953 10.5765 4.41555 13.3201 7.97953 13.3201C9.38969 13.3201 10.693 12.8898 11.7558 12.1613L16.7552 16.8863L17.8239 15.8738L12.8839 11.1826C13.8547 10.111 14.4395 8.72023 14.4395 7.20008C14.4395 3.82367 11.5435 1.08008 7.97953 1.08008ZM7.97953 1.80008C11.1323 1.80008 13.6795 4.2132 13.6795 7.20008C13.6795 10.187 11.1323 12.6001 7.97953 12.6001C4.82672 12.6001 2.27953 10.187 2.27953 7.20008C2.27953 4.2132 4.82672 1.80008 7.97953 1.80008Z" fill="black"></path>
    </g>
  </symbol>
  <symbol fill="none" xmlns="http://www.w3.org/2000/svg" viewBox="0 0 21 18" id="slider-arrow">
    <path d="M21 9.05072L2 9.05072L10.0508 0.999873" stroke="#2864B2"></path>
    <path d="M10 17.1016L4 12.1016" stroke="#2864B2"></path>
  </symbol>
  <symbol fill="none" xmlns="http://www.w3.org/2000/svg" viewBox="0 0 23 23" id="vk">
    <path d="M11.5 0C5.14894 0 0 5.14871 0 11.5C0 17.8513 5.14894 23 11.5 23C17.8511 23 23 17.8513 23 11.5C23 5.14871 17.8511 0 11.5 0ZM17.3334 12.7438C17.8694 13.2673 18.4365 13.76 18.9176 14.3376C19.1308 14.5932 19.3318 14.8574 19.4847 15.1546C19.7031 15.5784 19.5059 16.0431 19.1266 16.0682L16.7706 16.0678C16.1621 16.1181 15.6779 15.8727 15.2696 15.4567C14.9438 15.1252 14.6414 14.7711 14.3275 14.4282C14.1993 14.2875 14.0642 14.1551 13.9033 14.0508C13.5821 13.8419 13.3031 13.9059 13.1191 14.2414C12.9315 14.5828 12.8887 14.9612 12.8708 15.3412C12.8452 15.8967 12.6776 16.0419 12.1202 16.068C10.9292 16.1238 9.79906 15.9431 8.74871 15.3426C7.82212 14.8129 7.10494 14.0654 6.48 13.2191C5.26306 11.5692 4.33106 9.75835 3.49365 7.89553C3.30518 7.476 3.44306 7.25153 3.90588 7.24282C4.67482 7.228 5.44376 7.22988 6.21271 7.24212C6.52565 7.24706 6.73271 7.42612 6.85294 7.72141C7.26847 8.74376 7.77788 9.71647 8.41624 10.6186C8.58635 10.8588 8.76 11.0984 9.00729 11.268C9.28024 11.4553 9.48824 11.3934 9.61694 11.0887C9.69929 10.8951 9.73482 10.688 9.75271 10.4805C9.81388 9.76965 9.82118 9.05906 9.71529 8.35106C9.64941 7.908 9.40024 7.62188 8.95859 7.53812C8.73365 7.49553 8.76659 7.41224 8.876 7.28376C9.06588 7.06165 9.24376 6.92424 9.59929 6.92424L12.2612 6.92376C12.6807 7.00612 12.7748 7.19435 12.8318 7.61694L12.8341 10.5751C12.8292 10.7386 12.9162 11.2233 13.2099 11.3304C13.4452 11.408 13.6005 11.2193 13.7412 11.0704C14.3795 10.3929 14.8344 9.59341 15.2416 8.76588C15.4214 8.40094 15.5765 8.02329 15.7271 7.64494C15.8391 7.36518 16.0132 7.22753 16.3289 7.23224L18.8922 7.23529C18.9678 7.23529 19.0445 7.236 19.1193 7.24894C19.5513 7.32282 19.6696 7.50871 19.536 7.93012C19.3256 8.59224 18.9169 9.14376 18.5174 9.69671C18.0892 10.2887 17.6325 10.86 17.2085 11.4546C16.8188 11.9981 16.8496 12.2718 17.3334 12.7438Z" fill="#AEB6C1"></path>
  </symbol>
</svg>