<svg width="24" height="24" viewBox="0 0 24 24" fill="none" xmlns="http://www.w3.org/2000/svg">
<path d="M15.4835 10.3494L11.0262 15.9775C10.5135 16.6248 9.733 17.0023 8.90721 17.0023H8.84391C7.66268 17.0023 6.62752 16.2119 6.31633 15.0724V15.0724C6.09803 14.273 6.27075 13.4175 6.78209 12.7654L14.4646 2.96818C15.428 1.73953 16.9445 1.07741 18.5006 1.20601L18.9479 1.24298C20.6552 1.38409 22.0848 2.59335 22.5072 4.25368V4.25368C22.8175 5.47392 22.5373 6.76909 21.7503 7.75191L11.5741 20.4602C10.3135 22.0345 8.31556 22.8265 6.31866 22.5437L6.20629 22.5278C3.92869 22.2052 2.08706 20.5093 1.57819 18.266V18.266C1.21206 16.6519 1.58637 14.9587 2.59875 13.6494L8.71623 5.73769" stroke="white"/>
</svg>
