<svg width="57" height="25" viewBox="0 0 57 25" fill="none" xmlns="http://www.w3.org/2000/svg">
<path d="M1.43466 20H4.0696V15.0852H6.85369C10.2131 15.0852 12.017 13.0682 12.017 10.2699C12.017 7.4929 10.2344 5.45455 6.8892 5.45455H1.43466V20ZM4.0696 12.919V7.65625H6.48438C8.45881 7.65625 9.33239 8.72159 9.33239 10.2699C9.33239 11.8182 8.45881 12.919 6.49858 12.919H4.0696ZM19.2347 20C23.6665 20 26.2944 17.2585 26.2944 12.7131C26.2944 8.18182 23.6665 5.45455 19.3342 5.45455H14.3058V20H19.2347ZM16.9407 17.7202V7.73438H19.185C22.1396 7.73438 23.6808 9.3821 23.6808 12.7131C23.6808 16.0582 22.1396 17.7202 19.1069 17.7202H16.9407ZM28.7979 20H31.4329V13.821H37.4769V11.6122H31.4329V7.66335H38.1161V5.45455H28.7979V20Z" fill="#2864B2"/>
<rect x="45" y="18" width="12" height="2" fill="#2864B2"/>
<path d="M50.8838 5L50.8838 14.1698L46.9983 10.2843" stroke="#2864B2" stroke-width="2"/>
<path d="M55.5664 10.0004L53.1533 12.8961" stroke="#2864B2" stroke-width="2"/>
</svg>
