<svg width="138" height="226" viewBox="0 0 138 226" fill="none" xmlns="http://www.w3.org/2000/svg">
<path fill-rule="evenodd" clip-rule="evenodd" d="M71.3415 42.7882V85.5781L60.0866 104.77C40.9331 137.432 0 226 0 226C0 226 7.48576 226 16.6328 226H33.2672L39.8646 211.243C43.4946 203.127 51.8704 185.86 58.478 172.873L70.4922 149.261L70.9492 187.631L71.4061 226H96.8529H122.3V143.358C122.3 97.9052 122.006 60.7164 121.649 60.7164C120.239 60.7164 94.2591 100.911 82.199 121.748C68.8446 144.827 44.8263 191.79 36.4317 211.243L31.74 223.227H18.63H4.83C4.83 223.227 16.3321 195.051 31.4837 164.44C59.7536 107.331 98.4632 46.4869 130.468 8.85448L138 0H104.67H71.3415V42.7882Z" fill="#2864B2"/>
</svg>
