<svg width="302" height="226" viewBox="0 0 302 226" fill="none" xmlns="http://www.w3.org/2000/svg">
<g opacity="0.1">
<path d="M72.0682 85.5755V42.8469V0.120022H105.736H139.406L131.797 8.96181C99.4661 46.5403 60.5988 108.127 32.0409 165.154C16.735 195.721 5.82562 222.428 5.82562 222.428H18.4924H31.8387L36.8028 211.06C45.2828 191.635 69.5458 144.74 83.0363 121.694C95.2192 100.886 121.464 60.7494 122.888 60.7494C123.249 60.7494 123.545 97.885 123.545 143.273V225.796H97.8394H72.1334L71.6718 187.482L71.2102 149.167L59.0736 172.745C52.3987 185.713 43.9376 202.956 40.2707 211.06L33.6061 225.796H16.8022L0 226C0 226 41.35 137.355 60.6986 104.739L72.0682 85.5755Z" fill="#2864B2"/>
<path d="M147.642 149.167L147.604 74.6437L147.568 0.120022H198.289C238.419 0.120022 247.589 0 247.589 0C246.87 1.1587 234.156 18.6457 234.156 18.6457C206.269 51.2744 177.537 93.4152 156.769 132.147L147.642 149.167Z" fill="#2864B2"/>
<path d="M169.316 162.194C195.923 109.196 231.962 56.8203 272.438 12.3301L283.545 0.120022H292.774H302V112.958V225.796H222.095H142.189L143.344 222.007C146.509 211.606 159.315 182.114 169.316 162.194Z" fill="#2864B2"/>
</g>
</svg>
