<svg width="692" height="24" viewBox="0 0 692 24" fill="none" xmlns="http://www.w3.org/2000/svg">
<path fill-rule="evenodd" clip-rule="evenodd" d="M12.0309 0.33956C4.09438 1.23609 0.3307 4.61806 0.0242138 11.1292C-0.371198 19.533 4.0502 23.1227 15.202 23.451C28.5039 23.8428 33.9726 19.6529 32.9273 9.87111C32.153 2.6231 24.146 -1.029 12.0309 0.33956ZM91.5438 0.290064C91.2362 0.424012 87.7128 3.46874 83.7139 7.05625L76.4432 13.5786L76.3683 7.08924L76.2931 0.599906H73.0825H69.8717V10.9796V19.8236C69.8717 20.8067 70.2622 21.7496 70.9573 22.4449C73.4975 24.9848 74.4737 24.5103 83.4343 16.3792L90.1456 10.2892L90.2206 16.7701L90.2958 23.2508H93.6593H97.0228L96.9401 13.1138C96.8494 2.05432 96.8109 1.78306 95.1694 0.707567C94.3523 0.172056 92.3447 -0.0592068 91.5438 0.290064ZM112.392 0.334527C103.732 1.42037 100.212 4.77102 100.214 11.9253C100.216 20.2637 104.685 23.394 116.572 23.3831C128.78 23.3719 133.164 20.3137 133.198 11.7855C133.232 3.06186 125.33 -1.28739 112.392 0.334527ZM36.5945 11.9108V23.2508H40.09H43.5855V20.3146V17.3783H50.9666C59.2367 17.3783 60.6603 17.1446 63.3365 15.3481C67.3121 12.6798 67.6195 6.59372 63.9489 3.22433C61.3234 0.81411 60.9492 0.753988 47.9898 0.656673L36.5945 0.570823V11.9108ZM136.706 11.9253V23.2508H140.341H143.976V18.9164V14.5819H150.548H157.12V18.9164V23.2508H160.755H164.39V11.9253V0.599906H160.755H157.12V4.51487V8.42984H150.548H143.976V4.51487V0.599906H140.341H136.706V11.9253ZM378.176 1.04034C377.715 1.28083 377.108 1.68491 376.829 1.93827C376.412 2.31494 362.203 21.9295 361.453 23.1627C361.272 23.4602 362.047 23.5304 365.519 23.5304H369.809L374.949 16.2598C377.775 12.2609 380.108 8.98912 380.133 8.98912C380.157 8.98912 382.49 12.2609 385.317 16.2598L390.457 23.5304H394.593C396.868 23.5304 398.729 23.453 398.729 23.3584C398.729 23.1319 384.563 3.17064 383.799 2.32053C382.377 0.738328 379.856 0.164505 378.176 1.04034ZM417.045 0.989445C416.584 1.19162 415.824 1.72154 415.357 2.16701C414.707 2.78641 401.349 21.434 400.303 23.1809C400.14 23.4544 401.009 23.5304 404.292 23.5304H408.49L413.708 16.2349C416.577 12.2223 419.017 9.04505 419.129 9.17396C419.563 9.67368 424.735 17.3588 424.735 17.5042C424.735 17.5889 422.628 17.6608 420.051 17.6644L415.368 17.6708L413.339 20.5307L411.311 23.3906L424.359 23.4633C431.535 23.5033 437.461 23.482 437.527 23.4161C437.696 23.2472 424.027 3.45839 422.958 2.32389C421.344 0.611371 419.076 0.0996289 417.045 0.989445ZM191.124 1.33872C179.824 3.76152 177.908 17.182 188.165 22.0696C190.821 23.335 192.66 23.526 202.212 23.5282L210.811 23.5304V20.6149V17.6991L201.769 17.6088L192.728 17.5182L191.38 16.6792C188.098 14.6381 187.622 11.3443 190.244 8.82273C191.918 7.21284 192.919 7.03164 200.132 7.03164H206.264L208.537 4.09178C209.787 2.4749 210.811 1.09067 210.811 1.01573C210.811 0.649123 192.976 0.941627 191.124 1.33872ZM213.048 12.205V23.5304H216.683H220.318V15.281V7.03164H226.191H232.063V15.281V23.5304H235.559H239.054V12.205V0.879546H226.051H213.048V12.205ZM241.291 12.205V23.5304H254.434H267.578V20.5942V17.658H258.07H248.562V16.2598V14.8616H255.361H262.161L264.17 12.3524C265.275 10.9721 266.179 9.77659 266.179 9.69577C266.179 9.61468 262.215 9.5484 257.371 9.5484H248.562V8.29002V7.03164H255.776H262.989L265.074 4.32248C266.22 2.83256 267.259 1.44834 267.382 1.24643C267.565 0.945821 265.233 0.879546 254.448 0.879546H241.291V12.205ZM269.815 12.205V23.5304H287.292C296.905 23.5304 304.77 23.4591 304.77 23.3722C304.77 23.2852 303.745 21.901 302.492 20.2961L300.214 17.3783H298.158H296.101V9.12894V0.879546H292.466H288.83V9.12894V17.3783H282.958H277.085V9.12894V0.879546H273.45H269.815V12.205ZM312.813 1.16841C300.137 3.30291 298.527 18.3269 310.502 22.7388C312.091 23.3238 312.707 23.3626 322.038 23.4655L331.895 23.5743V20.6336V17.6929L322.876 17.6057L313.858 17.5182L312.32 16.6792C308.594 14.6471 308.567 10.1172 312.268 7.94159L313.578 7.17146L320.43 7.0789L327.281 6.98606L329.329 4.3222C330.455 2.85688 331.444 1.48301 331.526 1.26881C331.695 0.827813 315.357 0.740006 312.813 1.16841ZM333.852 12.205V23.5304H337.488H341.123V15.281V7.03164H346.995H352.868V15.281V23.5304H356.503H360.139V12.205V0.879546H346.995H333.852V12.205ZM438.997 12.2044V23.5634L450.812 23.477C464.069 23.38 464.461 23.3213 466.374 21.142C468.647 18.5539 468.1 13.5137 465.415 12.2903L464.765 11.9941L465.594 11.2973C468.079 9.20584 468.006 5.14211 465.441 2.89044C463.461 1.15192 462.719 1.05684 450.253 0.945541L438.997 0.84515V12.2044ZM21.2375 6.47683C24.4729 7.09036 25.672 8.25199 25.889 10.983C26.295 16.0951 24.3339 17.4659 16.6002 17.4751C9.98585 17.4832 8.20398 16.7863 7.35247 13.8574C6.59045 11.2358 7.30326 8.56994 9.07702 7.40775C10.7353 6.32107 17.6323 5.79311 21.2375 6.47683ZM121.349 6.47683C125.486 7.26122 127.204 10.4371 125.668 14.4592C124.057 18.6795 109.974 18.9203 107.853 14.7637C106.679 12.4634 107.3 8.79309 109.084 7.48997C110.655 6.34204 117.609 5.76766 121.349 6.47683ZM58.053 7.11078C59.6304 7.96564 59.6285 9.99135 58.0493 10.9542C57.2188 11.4606 56.6148 11.5039 50.3668 11.5048L43.5855 11.5059V8.96367V6.42146L50.3668 6.52101C56.1752 6.60602 57.2778 6.69076 58.053 7.11078ZM460.39 7.69131C461.569 9.49164 460.357 9.82804 452.686 9.82804H446.268V8.42984V7.03164H453.113H459.957L460.39 7.69131ZM167.466 11.5059V14.0226H172.919H178.372V11.5059V8.98912H172.919H167.466V11.5059ZM470.876 11.5059V14.0226H476.329H481.782V11.5059V8.98912H476.329H470.876V11.5059ZM459.637 14.8851C461.053 15.3783 461.134 16.8825 459.774 17.3999C459.401 17.5416 456.209 17.658 452.681 17.658H446.268V16.12V14.5819H452.518C456.285 14.5819 459.114 14.7025 459.637 14.8851Z" fill="#77787B"/>
<path d="M516.115 1.94607C516.496 1.53304 517.201 0.994172 517.681 0.748648C519.365 -0.110967 522.112 0.273539 523.422 1.55233C524.398 2.50591 538.549 22.6406 538.549 23.0765C538.549 23.1725 532.625 23.2508 525.383 23.2508C518.141 23.2508 512.258 23.1484 512.31 23.0237C512.361 22.8987 513.284 21.5799 514.36 20.0933L516.318 17.3901L521.116 17.3842L525.914 17.3783L524.026 14.512C522.987 12.9354 521.628 10.9209 521.006 10.0347L519.874 8.42366L514.65 15.8372L509.426 23.2508H505.252C502.956 23.2508 501.078 23.1892 501.078 23.1143C501.078 22.8788 515.386 2.73605 516.115 1.94607Z" fill="#2864B2"/>
<path d="M608.096 7.01987C611.972 3.51961 615.306 0.590371 615.506 0.510115C616.516 0.105475 618.754 0.338695 619.501 0.926499C620.99 2.09707 621.043 2.52744 621.043 13.3146V23.2508H617.833H614.622L614.547 16.8076L614.472 10.3644L608.04 16.1359C599.072 24.1836 598.968 24.2457 596.305 23.133C594.389 22.3327 594.347 22.0805 594.255 10.7368L594.172 0.599879H597.535H600.899L600.974 6.9919L601.049 13.3839L608.096 7.01987Z" fill="#2864B2"/>
<path d="M661.882 12.7022C668.8 2.93264 670.224 1.14294 671.518 0.593168C673.313 -0.169132 675.558 0.26487 676.978 1.64853C678.114 2.75451 691.572 21.7994 691.997 22.9012C692.104 23.1778 689.378 23.2508 678.936 23.2508C671.678 23.2508 665.781 23.1484 665.833 23.0237C665.884 22.8987 666.806 21.5799 667.883 20.0933L669.841 17.3901L674.67 17.3842L679.499 17.3783L677.206 13.9527C675.945 12.0688 674.574 10.059 674.161 9.48686L673.409 8.44631L668.181 15.8487L662.952 23.2508H658.776C656.479 23.2508 654.6 23.1915 654.6 23.1188C654.6 23.0463 657.877 18.3587 661.882 12.7022Z" fill="#2864B2"/>
<path d="M484.858 23.2508V11.9253V0.599879H496.488H508.117L507.324 1.65608C506.887 2.2369 505.901 3.55316 505.132 4.58084L503.734 6.4494L497.932 6.46086L492.129 6.47233V14.8615V23.2508H488.494H484.858Z" fill="#2864B2"/>
<path d="M532.28 5.42368C532.714 4.84706 533.741 3.52548 534.563 2.48745L536.056 0.599879H548.791C556.741 0.599879 561.491 0.699991 561.433 0.866377C561.382 1.01291 560.422 2.33421 559.299 3.8026L557.258 6.47233H553.217H549.176V14.8699V23.2675L545.61 23.1892L542.045 23.1109L541.971 14.7916L541.897 6.47233H536.694H531.492L532.28 5.42368Z" fill="#2864B2"/>
<path d="M577.909 17.3299C567.32 17.1445 565.364 15.3808 565.17 5.84314L565.063 0.599879H568.724H572.386V5.09258C572.386 11.5333 572.356 11.5059 579.368 11.5059H583.851V6.05287V0.599879H587.486H591.122V11.9253V23.2508H587.486H583.851V20.3422V17.434L577.909 17.3299Z" fill="#2864B2"/>
<path d="M624.958 23.2508V11.9253V0.599879H628.594H632.229V4.51485V8.42981H638.661H645.092V4.51485V0.599879H648.728H652.363V11.9337V23.2675L648.798 23.1892L645.232 23.1109L645.155 18.8464L645.078 14.5819H638.653H632.229V18.9163V23.2508H628.594H624.958Z" fill="#2864B2"/>
</svg>
