<svg width="100" height="163" viewBox="0 0 100 163" fill="none" xmlns="http://www.w3.org/2000/svg">
<path fill-rule="evenodd" clip-rule="evenodd" d="M51.6968 30.8605V61.7223L43.541 75.5639C29.6616 99.121 0 163 0 163C0 163 5.42447 163 12.0527 163H24.1067L28.8874 152.356C31.5178 146.503 37.5872 134.049 42.3753 124.683L51.0813 107.653L51.4124 135.327L51.7435 163H70.1833H88.623V103.396C88.623 70.6131 88.4101 43.791 88.1516 43.791C87.13 43.791 68.3037 72.7807 59.5645 87.8095C49.8874 104.455 32.4828 138.326 26.3998 152.356L23 161H13.5H3.5C3.5 161 11.8349 140.679 22.8143 118.601C43.2997 77.4116 71.3501 33.5281 94.5423 6.38619L100 0H75.8478H51.6968V30.8605Z" fill="white"/>
</svg>
