<svg width="17" height="16" viewBox="0 0 17 16" fill="none" xmlns="http://www.w3.org/2000/svg">
<path d="M6.97953 0.0800781C3.41555 0.0800781 0.519531 2.82367 0.519531 6.20008C0.519531 9.57648 3.41555 12.3201 6.97953 12.3201C8.38969 12.3201 9.69297 11.8898 10.7558 11.1613L15.7552 15.8863L16.8239 14.8738L11.8839 10.1826C12.8547 9.11102 13.4395 7.72023 13.4395 6.20008C13.4395 2.82367 10.5435 0.0800781 6.97953 0.0800781ZM6.97953 0.800078C10.1323 0.800078 12.6795 3.2132 12.6795 6.20008C12.6795 9.18695 10.1323 11.6001 6.97953 11.6001C3.82672 11.6001 1.27953 9.18695 1.27953 6.20008C1.27953 3.2132 3.82672 0.800078 6.97953 0.800078Z" fill="black"/>
</svg>
