<svg width="23" height="23" viewBox="0 0 23 23" fill="none" xmlns="http://www.w3.org/2000/svg">
<path d="M11.5 0C5.14894 0 0 5.14871 0 11.5C0 17.8513 5.14894 23 11.5 23C17.8511 23 23 17.8513 23 11.5C23 5.14871 17.8511 0 11.5 0ZM17.3334 12.7438C17.8694 13.2673 18.4365 13.76 18.9176 14.3376C19.1308 14.5932 19.3318 14.8574 19.4847 15.1546C19.7031 15.5784 19.5059 16.0431 19.1266 16.0682L16.7706 16.0678C16.1621 16.1181 15.6779 15.8727 15.2696 15.4567C14.9438 15.1252 14.6414 14.7711 14.3275 14.4282C14.1993 14.2875 14.0642 14.1551 13.9033 14.0508C13.5821 13.8419 13.3031 13.9059 13.1191 14.2414C12.9315 14.5828 12.8887 14.9612 12.8708 15.3412C12.8452 15.8967 12.6776 16.0419 12.1202 16.068C10.9292 16.1238 9.79906 15.9431 8.74871 15.3426C7.82212 14.8129 7.10494 14.0654 6.48 13.2191C5.26306 11.5692 4.33106 9.75835 3.49365 7.89553C3.30518 7.476 3.44306 7.25153 3.90588 7.24282C4.67482 7.228 5.44376 7.22988 6.21271 7.24212C6.52565 7.24706 6.73271 7.42612 6.85294 7.72141C7.26847 8.74376 7.77788 9.71647 8.41624 10.6186C8.58635 10.8588 8.76 11.0984 9.00729 11.268C9.28024 11.4553 9.48824 11.3934 9.61694 11.0887C9.69929 10.8951 9.73482 10.688 9.75271 10.4805C9.81388 9.76965 9.82118 9.05906 9.71529 8.35106C9.64941 7.908 9.40024 7.62188 8.95859 7.53812C8.73365 7.49553 8.76659 7.41224 8.876 7.28376C9.06588 7.06165 9.24376 6.92424 9.59929 6.92424L12.2612 6.92376C12.6807 7.00612 12.7748 7.19435 12.8318 7.61694L12.8341 10.5751C12.8292 10.7386 12.9162 11.2233 13.2099 11.3304C13.4452 11.408 13.6005 11.2193 13.7412 11.0704C14.3795 10.3929 14.8344 9.59341 15.2416 8.76588C15.4214 8.40094 15.5765 8.02329 15.7271 7.64494C15.8391 7.36518 16.0132 7.22753 16.3289 7.23224L18.8922 7.23529C18.9678 7.23529 19.0445 7.236 19.1193 7.24894C19.5513 7.32282 19.6696 7.50871 19.536 7.93012C19.3256 8.59224 18.9169 9.14376 18.5174 9.69671C18.0892 10.2887 17.6325 10.86 17.2085 11.4546C16.8188 11.9981 16.8496 12.2718 17.3334 12.7438Z" fill="#AEB6C1"/>
</svg>
